HIERARCHY
ROOT Hips
{
	OFFSET 0.000000 35.082581 0.000000
	CHANNELS 6 Xposition Yposition Zposition Xrotation Yrotation Zrotation 
	JOINT Spine
	{
		OFFSET 0.000000 6.876099 0.125700
		CHANNELS 3 Xrotation Yrotation Zrotation
		JOINT Spine1
		{
			OFFSET 0.000000 5.730043 0.104720
			CHANNELS 3 Xrotation Yrotation Zrotation
			JOINT Spine1_split
			{
				OFFSET 0.000000 5.730043 0.104720
				CHANNELS 3 Xrotation Yrotation Zrotation
				JOINT Spine2
				{
					OFFSET 0.000000 5.730043 0.104720
					CHANNELS 3 Xrotation Yrotation Zrotation
					JOINT Neck
					{
						OFFSET 0.000000 10.314075 0.188496
						CHANNELS 3 Xrotation Yrotation Zrotation
						JOINT Head
						{
							OFFSET 0.000000 7.643700 -2.377400
							CHANNELS 3 Xrotation Yrotation Zrotation
							JOINT HeadTop_End
							{
								OFFSET 0.000000 43.788605 -13.619600
								CHANNELS 3 Xrotation Yrotation Zrotation
								End Site
								{
									OFFSET 0.000000 0.000000 0.000000
								}
							}
						}
					}
					JOINT LeftShoulder
					{
						OFFSET 2.196100 4.412489 0.087492
						CHANNELS 3 Xrotation Yrotation Zrotation
						JOINT LeftShoulder_split
						{
							OFFSET 2.196100 4.412489 0.087492
							CHANNELS 3 Xrotation Yrotation Zrotation
							JOINT LeftArm
							{
								OFFSET 8.771219 -2.981674 -0.026999
								CHANNELS 3 Xrotation Yrotation Zrotation
								JOINT LeftForeArm
								{
									OFFSET 8.512804 0.000000 -0.000000
									CHANNELS 3 Xrotation Yrotation Zrotation
									JOINT LeftHand
									{
										OFFSET 18.484802 0.000000 -0.000000
										CHANNELS 3 Xrotation Yrotation Zrotation
										JOINT LeftHandThumb1
										{
											OFFSET 2.499420 -1.158070 2.653252
											CHANNELS 3 Xrotation Yrotation Zrotation
											JOINT LeftHandThumb2
											{
												OFFSET 2.370079 -1.368366 1.368366
												CHANNELS 3 Xrotation Yrotation Zrotation
												JOINT LeftHandThumb3
												{
													OFFSET 2.676727 -1.545410 1.545409
													CHANNELS 3 Xrotation Yrotation Zrotation
													JOINT LeftHandThumb4
													{
														OFFSET 1.692226 -0.977005 0.977007
														CHANNELS 3 Xrotation Yrotation Zrotation
														End Site
														{
															OFFSET 0.000000 0.000000 0.000000
														}
													}
												}
											}
										}
										JOINT LeftHandIndex1
										{
											OFFSET 7.924831 -0.457527 2.345128
											CHANNELS 3 Xrotation Yrotation Zrotation
											JOINT LeftHandIndex2
											{
												OFFSET 3.643303 0.000000 0.000000
												CHANNELS 3 Xrotation Yrotation Zrotation
												JOINT LeftHandIndex3
												{
													OFFSET 3.810799 0.000000 0.000000
													CHANNELS 3 Xrotation Yrotation Zrotation
													JOINT LeftHandIndex4
													{
														OFFSET 2.403702 0.000000 0.000000
														CHANNELS 3 Xrotation Yrotation Zrotation
														End Site
														{
															OFFSET 0.000000 0.000000 0.000000
														}
													}
												}
											}
										}
										JOINT LeftHandMiddle1
										{
											OFFSET 8.563995 0.000000 -0.000000
											CHANNELS 3 Xrotation Yrotation Zrotation
											JOINT LeftHandMiddle2
											{
												OFFSET 3.861618 0.000000 0.000000
												CHANNELS 3 Xrotation Yrotation Zrotation
												JOINT LeftHandMiddle3
												{
													OFFSET 3.701603 0.000000 0.000000
													CHANNELS 3 Xrotation Yrotation Zrotation
													JOINT LeftHandMiddle4
													{
														OFFSET 2.322544 0.000000 0.000000
														CHANNELS 3 Xrotation Yrotation Zrotation
														End Site
														{
															OFFSET 0.000000 0.000000 0.000000
														}
													}
												}
											}
										}
										JOINT LeftHandRing1
										{
											OFFSET 8.426460 -0.424637 -3.286992
											CHANNELS 3 Xrotation Yrotation Zrotation
											JOINT LeftHandRing2
											{
												OFFSET 3.126408 0.000000 0.000000
												CHANNELS 3 Xrotation Yrotation Zrotation
												JOINT LeftHandRing3
												{
													OFFSET 3.085026 0.000000 0.000000
													CHANNELS 3 Xrotation Yrotation Zrotation
													JOINT LeftHandRing4
													{
														OFFSET 1.644005 0.000000 0.000000
														CHANNELS 3 Xrotation Yrotation Zrotation
														End Site
														{
															OFFSET 0.000000 0.000000 0.000000
														}
													}
												}
											}
										}
									}
								}
							}
						}
					}
					JOINT RightShoulder
					{
						OFFSET -2.196100 4.412496 0.070690
						CHANNELS 3 Xrotation Yrotation Zrotation
						JOINT RightShoulder_split
						{
							OFFSET -2.196100 4.412496 0.070690
							CHANNELS 3 Xrotation Yrotation Zrotation
							JOINT RightArm
							{
								OFFSET -8.771282 -2.981682 -0.094208
								CHANNELS 3 Xrotation Yrotation Zrotation
								JOINT RightForeArm
								{
									OFFSET -8.494598 0.000000 0.000000
									CHANNELS 3 Xrotation Yrotation Zrotation
									JOINT RightHand
									{
										OFFSET -18.483803 0.000000 0.000001
										CHANNELS 3 Xrotation Yrotation Zrotation
										JOINT RightHandThumb1
										{
											OFFSET -2.527351 -1.008072 2.575253
											CHANNELS 3 Xrotation Yrotation Zrotation
											JOINT RightHandThumb2
											{
												OFFSET -2.321518 -1.340328 1.340329
												CHANNELS 3 Xrotation Yrotation Zrotation
												JOINT RightHandThumb3
												{
													OFFSET -2.657753 -1.534454 1.534455
													CHANNELS 3 Xrotation Yrotation Zrotation
													JOINT RightHandThumb4
													{
														OFFSET -1.807510 -1.043568 1.043567
														CHANNELS 3 Xrotation Yrotation Zrotation
														End Site
														{
															OFFSET 0.000000 0.000000 0.000000
														}
													}
												}
											}
										}
										JOINT RightHandIndex1
										{
											OFFSET -8.811420 0.015533 2.887987
											CHANNELS 3 Xrotation Yrotation Zrotation
											JOINT RightHandIndex2
											{
												OFFSET -3.537502 0.000000 0.000000
												CHANNELS 3 Xrotation Yrotation Zrotation
												JOINT RightHandIndex3
												{
													OFFSET -3.356201 0.000000 0.000000
													CHANNELS 3 Xrotation Yrotation Zrotation
													JOINT RightHandIndex4
													{
														OFFSET -1.933098 0.000000 0.000000
														CHANNELS 3 Xrotation Yrotation Zrotation
														End Site
														{
															OFFSET 0.000000 0.000000 0.000000
														}
													}
												}
											}
										}
										JOINT RightHandMiddle1
										{
											OFFSET -8.178135 0.000000 0.000000
											CHANNELS 3 Xrotation Yrotation Zrotation
											JOINT RightHandMiddle2
											{
												OFFSET -3.901302 0.000000 0.000000
												CHANNELS 3 Xrotation Yrotation Zrotation
												JOINT RightHandMiddle3
												{
													OFFSET -3.909599 0.000000 0.000000
													CHANNELS 3 Xrotation Yrotation Zrotation
													JOINT RightHandMiddle4
													{
														OFFSET -2.376003 0.000000 0.000000
														CHANNELS 3 Xrotation Yrotation Zrotation
														End Site
														{
															OFFSET 0.000000 0.000000 0.000000
														}
													}
												}
											}
										}
										JOINT RightHandRing1
										{
											OFFSET -7.559013 0.014137 -2.865403
											CHANNELS 3 Xrotation Yrotation Zrotation
											JOINT RightHandRing2
											{
												OFFSET -3.449306 0.000000 0.000000
												CHANNELS 3 Xrotation Yrotation Zrotation
												JOINT RightHandRing3
												{
													OFFSET -3.362106 0.000000 0.000000
													CHANNELS 3 Xrotation Yrotation Zrotation
													JOINT RightHandRing4
													{
														OFFSET -2.076401 0.000000 0.000000
														CHANNELS 3 Xrotation Yrotation Zrotation
														End Site
														{
															OFFSET 0.000000 0.000000 0.000000
														}
													}
												}
											}
										}
									}
								}
							}
						}
					}
				}
			}
		}
	}
	JOINT LeftUpLeg
	{
		OFFSET 10.205400 -3.823500 0.155100
		CHANNELS 3 Xrotation Yrotation Zrotation
		JOINT LeftLeg
		{
			OFFSET 0.708757 -12.982077 0.567790
			CHANNELS 3 Xrotation Yrotation Zrotation
			JOINT LeftFoot
			{
				OFFSET -0.708756 -10.717838 -2.184338
				CHANNELS 3 Xrotation Yrotation Zrotation
				JOINT LeftToeBase
				{
					OFFSET 0.108149 -7.191104 7.560241
					CHANNELS 3 Xrotation Yrotation Zrotation
					JOINT LeftToe_End
					{
						OFFSET 0.070230 0.081724 4.490308
						CHANNELS 3 Xrotation Yrotation Zrotation
						End Site
						{
							OFFSET 0.000000 0.000000 0.000000
						}
					}
				}
			}
		}
	}
	JOINT RightUpLeg
	{
		OFFSET -10.205400 -3.823500 0.005500
		CHANNELS 3 Xrotation Yrotation Zrotation
		JOINT RightLeg
		{
			OFFSET -0.708756 -12.982134 0.610632
			CHANNELS 3 Xrotation Yrotation Zrotation
			JOINT RightFoot
			{
				OFFSET 0.708754 -10.717769 -1.945823
				CHANNELS 3 Xrotation Yrotation Zrotation
				JOINT RightToeBase
				{
					OFFSET -0.108140 -7.191069 7.372968
					CHANNELS 3 Xrotation Yrotation Zrotation
					JOINT RightToe_End
					{
						OFFSET -0.070227 0.081735 4.479403
						CHANNELS 3 Xrotation Yrotation Zrotation
						End Site
						{
							OFFSET 0.000000 0.000000 0.000000
						}
					}
				}
			}
		}
	}
}
MOTION
Frames: 5
Frame Time: 0.016667
5.116440 15.303745 -2.237810 0.979177 -28.599973 7.838818 3.687141 -6.021037 -3.140525 2.855674 -4.198778 -2.072995 0.000000 0.000000 0.000000 2.773307 -4.260259 -2.035172 0.447420 2.821362 2.164895 0.278334 15.546817 4.247277 -0.000000 0.000000 -0.000000 1.530505 -0.690787 -2.367171 0.000000 0.000000 0.000000 -3.234536 -12.111224 -50.675386 0.000247 -87.973308 0.000114 -53.085070 20.313640 41.451885 -1.540055 3.690171 6.142349 3.939050 7.948709 0.746812 -0.579465 1.574998 2.538725 -0.000001 -0.000002 -0.000000 1.016543 3.605834 -31.478703 1.016519 3.605843 -31.478696 0.193855 1.625522 -13.600721 0.000005 -0.000002 -0.000001 1.299295 4.030462 -35.722873 1.301555 4.033600 -35.755012 0.332603 2.118094 -17.846577 0.000003 0.000001 -0.000000 1.751605 4.592891 -41.733692 1.751604 4.592890 -41.733699 0.588553 2.790126 -23.818362 0.000001 0.000001 -0.000001 5.585489 17.928714 2.373364 0.000000 0.000000 0.000000 -33.414669 -16.065406 41.084640 -0.000207 92.810291 0.000181 44.885374 -28.255048 9.382480 -1.849247 -3.581795 -6.586140 4.637198 -8.634119 -0.225402 -1.273770 0.137314 -2.094869 0.000001 -0.000002 -0.000000 0.081188 -1.061620 8.746195 0.001253 -0.132380 1.086274 -0.000001 0.002679 -0.021907 -0.000002 -0.000001 0.000000 0.493233 -2.576621 21.670010 0.002542 -0.188687 1.548420 0.000008 0.002688 -0.021911 0.000001 -0.000003 -0.000000 0.682834 -3.009781 25.559237 0.002548 -0.188676 1.548410 -0.000003 0.002669 -0.021892 0.000000 -0.000001 -0.000002 -86.331774 -22.804342 47.826699 78.178659 8.877497 -5.846684 33.660702 -1.458817 -10.705417 -0.003312 0.000010 -0.002865 -0.000000 -0.000004 -0.000000 7.733811 3.012933 -29.954744 107.063140 28.183418 4.107141 -1.690080 -1.913845 17.918467 57.863286 -3.469697 -7.156896 -0.000000 -0.000001 -0.000000 
5.103135 15.310169 -2.230317 1.040766 -28.601059 7.901918 3.679455 -5.969385 -3.272796 2.844912 -4.152774 -2.149810 0.000000 0.000000 0.000000 2.768604 -4.212012 -2.111295 0.463154 2.837772 2.357653 0.012653 15.814931 4.562046 0.000001 -0.000001 0.000000 1.530163 -0.744397 -1.917298 0.000000 0.000000 0.000000 -3.271989 -12.105433 -51.033032 0.000388 -88.077359 0.000331 -52.890103 20.116203 41.398740 -1.540054 3.690169 6.142347 3.939052 7.948714 0.746813 -0.579469 1.574993 2.538726 0.000002 -0.000004 0.000001 1.016540 3.605840 -31.478706 1.016520 3.605840 -31.478696 0.193849 1.625526 -13.600718 0.000004 -0.000002 -0.000001 1.299295 4.030460 -35.722876 1.301550 4.033602 -35.755006 0.332594 2.118097 -17.846577 0.000000 0.000002 -0.000001 1.751602 4.592894 -41.733692 1.751607 4.592891 -41.733696 0.588550 2.790130 -23.818360 0.000002 -0.000000 -0.000000 5.560252 17.956441 2.651579 0.000000 0.000000 0.000000 -32.494437 -15.150546 39.610282 -0.000128 94.692875 -0.000007 40.622096 -28.211605 8.823206 -1.849251 -3.581798 -6.586138 4.637201 -8.634126 -0.225402 -1.273770 0.137313 -2.094865 0.000004 0.000001 -0.000002 0.081131 -1.061258 8.743202 0.000142 -0.046014 0.377552 0.000010 0.001000 -0.008206 -0.000001 -0.000000 0.000000 0.505641 -2.607620 21.944573 0.000302 -0.065760 0.539484 0.000003 0.001014 -0.008229 0.000001 -0.000000 -0.000000 0.699975 -3.045338 25.883917 0.000309 -0.065737 0.539488 -0.000004 0.001000 -0.008212 -0.000001 -0.000000 0.000000 -86.314637 -22.730385 47.915683 78.172874 8.846307 -5.902856 33.627217 -1.372307 -10.694637 -0.003313 -0.000006 -0.002859 0.000000 -0.000001 -0.000000 7.649394 3.062034 -29.933526 107.154651 28.163602 4.106059 -1.813932 -1.925219 17.776942 57.992124 -3.423050 -7.056619 -0.000000 -0.000002 -0.000000 
5.089581 15.315254 -2.223970 1.107753 -28.596279 7.974746 3.665658 -5.925409 -3.403687 2.829099 -4.112367 -2.227856 0.000000 0.000000 0.000000 2.758113 -4.169705 -2.188757 0.482740 2.858628 2.531981 -0.284939 16.079341 4.861551 -0.000000 0.000001 0.000001 1.512200 -0.744093 -1.544943 0.000000 0.000000 0.000000 -3.279725 -12.155375 -51.329835 0.000188 -88.114180 0.000253 -52.731629 19.892641 41.299193 -1.540051 3.690170 6.142344 3.939056 7.948715 0.746813 -0.579463 1.575005 2.538724 -0.000000 0.000000 0.000001 1.016543 3.605837 -31.478709 1.016523 3.605841 -31.478692 0.193853 1.625524 -13.600721 0.000001 -0.000002 -0.000000 1.299295 4.030464 -35.722880 1.301547 4.033602 -35.755006 0.332598 2.118095 -17.846577 0.000002 -0.000000 0.000002 1.751609 4.592891 -41.733689 1.751605 4.592892 -41.733699 0.588548 2.790129 -23.818360 0.000002 -0.000003 0.000002 5.540501 17.992967 2.918233 0.000000 0.000000 0.000000 -31.912911 -14.467710 38.297660 -0.000090 96.455242 0.000011 36.803115 -27.544602 9.079504 -1.849249 -3.581790 -6.586137 4.637199 -8.634119 -0.225403 -1.273763 0.137312 -2.094869 0.000000 -0.000002 0.000005 0.081085 -1.060896 8.740249 -0.000008 -0.003769 0.030869 0.000003 -0.002739 0.022512 -0.000000 0.000000 -0.000000 0.515003 -2.630686 22.149289 -0.000001 -0.003843 0.031512 0.000007 -0.002742 0.022522 -0.000000 0.000002 -0.000001 0.712897 -3.071772 26.126015 0.000008 -0.003843 0.031513 -0.000010 -0.002754 0.022522 0.000002 -0.000002 -0.000000 -86.308627 -22.642712 47.997857 78.153518 8.828767 -5.958584 33.599094 -1.317596 -10.670666 -0.003258 -0.000001 -0.002834 0.000000 0.000002 0.000000 7.568049 3.097251 -29.916795 107.226628 28.160537 4.105796 -1.915177 -1.934913 17.662425 58.108866 -3.375718 -6.950167 0.000001 0.000002 0.000000 
5.075829 15.319077 -2.219311 1.173366 -28.579301 8.048222 3.648409 -5.892084 -3.532430 2.810491 -4.080784 -2.306024 0.000000 0.000000 0.000000 2.744172 -4.136579 -2.266374 0.495813 2.875332 2.696918 -0.557787 16.320414 5.115389 -0.000000 -0.000001 0.000001 1.480363 -0.701470 -1.238155 0.000000 0.000000 0.000000 -3.264509 -12.231466 -51.554322 -0.000260 -88.164833 -0.000140 -52.644052 19.692605 41.206186 -1.540052 3.690166 6.142346 3.939054 7.948717 0.746803 -0.579463 1.575003 2.538720 -0.000002 -0.000005 0.000001 1.016541 3.605837 -31.478709 1.016517 3.605847 -31.478696 0.193848 1.625526 -13.600719 -0.000006 -0.000002 -0.000000 1.299296 4.030458 -35.722873 1.301551 4.033604 -35.755009 0.332598 2.118095 -17.846577 -0.000000 -0.000001 -0.000000 1.751607 4.592888 -41.733692 1.751608 4.592895 -41.733692 0.588551 2.790128 -23.818365 0.000002 -0.000000 0.000002 5.526709 18.040654 3.182604 0.000000 0.000000 0.000000 -31.850927 -14.060280 37.299557 -0.000055 98.091666 -0.000009 34.080274 -26.275753 10.628209 -1.849250 -3.581794 -6.586139 4.637195 -8.634125 -0.225403 -1.273765 0.137311 -2.094870 -0.000001 -0.000002 0.000003 0.081029 -1.060569 8.737461 -0.000006 0.003400 -0.000017 0.000013 -0.008214 0.067381 -0.000000 -0.000002 0.000000 0.521050 -2.645475 22.280705 -0.000001 0.008565 0.000024 0.000008 -0.008208 0.067377 -0.000000 -0.000000 0.000001 0.721252 -3.088726 26.281427 0.000012 0.008594 0.000023 0.000007 -0.008206 0.067379 -0.000000 0.000001 -0.000002 -86.304426 -22.555523 48.070509 78.116737 8.829416 -6.025609 33.583371 -1.298331 -10.631468 -0.003190 0.000002 -0.002749 0.000000 0.000000 -0.000000 7.496789 3.108654 -29.895287 107.269289 28.163773 4.103147 -1.981375 -1.941926 17.584563 58.201995 -3.331564 -6.846994 -0.000000 0.000004 0.000001 
5.062065 15.321865 -2.216572 1.228470 -28.546637 8.110813 3.631461 -5.870319 -3.657927 2.792437 -4.059438 -2.382830 0.000000 0.000000 0.000000 2.730225 -4.113881 -2.342641 0.493521 2.880709 2.859610 -0.755850 16.521387 5.302390 0.000000 -0.000002 0.000001 1.439693 -0.631335 -0.981217 0.000000 0.000000 0.000000 -3.226690 -12.317086 -51.720241 -0.000110 -88.228183 0.000062 -52.618319 19.503486 41.115246 -1.540056 3.690169 6.142349 3.939054 7.948713 0.746811 -0.579464 1.575004 2.538723 0.000001 0.000000 0.000001 1.016543 3.605838 -31.478713 1.016517 3.605845 -31.478696 0.193857 1.625523 -13.600719 0.000003 -0.000002 -0.000002 1.299298 4.030461 -35.722880 1.301550 4.033606 -35.755009 0.332593 2.118095 -17.846576 0.000001 0.000000 0.000000 1.751608 4.592889 -41.733692 1.751612 4.592892 -41.733696 0.588548 2.790129 -23.818360 0.000003 -0.000002 0.000003 5.518899 18.099081 3.451652 0.000000 0.000000 0.000000 -31.807310 -13.599829 36.387833 0.000001 99.576092 -0.000039 31.979615 -25.037841 12.500349 -1.849246 -3.581794 -6.586140 4.637198 -8.634122 -0.225400 -1.273768 0.137320 -2.094871 -0.000000 -0.000000 0.000001 0.080985 -1.060287 8.735051 0.000004 -0.011834 0.097214 0.000016 -0.015041 0.123318 -0.000000 0.000001 0.000000 0.524085 -2.652893 22.346412 0.000013 -0.011514 0.094404 0.000017 -0.015028 0.123313 -0.000001 0.000003 -0.000000 0.725447 -3.097186 26.359160 0.000009 -0.011498 0.094403 0.000017 -0.015021 0.123302 -0.000003 -0.000000 -0.000001 -86.288847 -22.484723 48.134840 78.062778 8.850375 -6.114978 33.583945 -1.314609 -10.577479 -0.003158 -0.000001 -0.002736 0.000000 -0.000001 -0.000000 7.442891 3.090296 -29.857253 107.274719 28.159058 4.098344 -1.999803 -1.944774 17.548544 58.259465 -3.294446 -6.757727 0.000001 -0.000002 0.000000 
